<svg width="42" height="42" viewBox="0 0 42 42" fill="none" xmlns="http://www.w3.org/2000/svg">
<g clip-path="url(#clip0_5164_68)">
<path d="M1.9543 7.81201C0.875322 7.81201 0 8.6862 0 9.76501V32.235C0 33.314 0.875448 34.188 1.9543 34.188H40.0457C41.1247 34.188 42 33.3138 42 32.235V9.76501C42 8.68607 41.1246 7.81201 40.0457 7.81201H1.9543ZM1.56324 13.3534H4.62399L5.01904 14.1645V13.3534H8.60744L9.39229 15.1279L10.1575 13.3534H21.5526C22.0705 13.3534 22.5364 13.4492 22.8782 13.7537V13.3534H25.9967V13.7537C26.5339 13.4583 27.1984 13.3534 27.955 13.3534H32.4752L32.8939 14.1645V13.3534H36.2408L36.6975 14.1645V13.3534H39.9578V20.2283H36.6634L36.04 19.1875V20.2283H31.9292L31.4816 19.1323H30.4697L30.013 20.2283H27.8788C27.0415 20.2283 26.4057 20.0296 25.9967 19.8096V20.2283H20.9252V18.6677C20.9252 18.4475 20.8861 18.4347 20.7532 18.4302H20.5629L20.5682 20.2283H10.7612V19.3778L10.4094 20.2309H8.3606L8.00885 19.3909V20.2283H4.0635L3.612 19.1323H2.60005L2.14725 20.2283H0.14175V16.6215L1.5632 13.3534L1.56324 13.3534ZM0.14175 19.2793H1.4162L1.8716 18.1768H4.3129L4.76305 19.2793H7.1492V15.4074L8.85415 19.2793H9.88441L11.5841 15.4113L11.5894 19.2793H12.7916V14.3404H10.8386L9.429 17.6913L7.89335 14.3404H5.97975V19.0155L3.98475 14.3404H2.24175L0.14175 19.2793V19.2793ZM13.6723 14.3403V19.2793H17.5835V18.2568H14.8431V17.2713H17.5179V16.2593H14.8431V15.3694H17.5835V14.3404H13.6723V14.3403ZM18.4288 14.3403V19.2793H19.6048V17.4825H20.8661C21.2893 17.4825 21.5514 17.5201 21.7232 17.6938C21.9371 17.9314 21.9082 18.3587 21.9082 18.6559L21.9135 19.2793H23.0987V18.3081C23.0987 17.8671 23.0704 17.6481 22.9044 17.4025C22.7999 17.2586 22.5802 17.0847 22.323 16.9864C22.6279 16.8642 23.1512 16.4573 23.1512 15.67C23.1512 15.1191 22.9272 14.7972 22.5553 14.5767C22.1753 14.356 21.7333 14.3404 21.1325 14.3404H18.4288V14.3403ZM23.8205 14.3403V19.2793H25.0175V14.3404H23.8205V14.3403ZM27.9969 14.3403C27.1881 14.3403 26.594 14.5224 26.2146 14.9166C25.7101 15.4456 25.5819 16.1148 25.5819 16.8472C25.5819 17.7453 25.7968 18.3127 26.2093 18.732C26.6184 19.1513 27.3398 19.2793 27.9103 19.2793H29.2845L29.7281 18.1768H32.1654L32.6222 19.2793H35.0122V15.5728L37.2369 19.2793H38.9012V14.3404H37.6989V17.7805L35.6357 14.3404H33.848V19.0116L31.8609 14.3404H30.1022L28.4484 18.2241H27.9208C27.6118 18.2241 27.2838 18.1649 27.1031 17.9695C26.8849 17.7202 26.7802 17.3383 26.7802 16.8092C26.7802 16.2916 26.9174 15.8989 27.1175 15.691C27.3505 15.4625 27.5922 15.3983 28.0205 15.3983H29.1335V14.3404H27.9969L27.9969 14.3403ZM3.08175 15.1515L3.87715 17.1268H2.29165L3.08175 15.1515ZM30.971 15.1515L31.7835 17.1268H30.1625L30.971 15.1515ZM19.5917 15.3628H21.042C21.2472 15.3628 21.4607 15.3725 21.5998 15.4521C21.7525 15.5238 21.8465 15.677 21.8465 15.8878C21.8465 16.103 21.7565 16.2753 21.6037 16.3551C21.442 16.4532 21.2515 16.4575 21.0223 16.4575H19.5917V15.3628L19.5917 15.3628ZM8.42226 21.819H14.7459L15.6529 22.8703L16.6228 21.819H20.8556C21.345 21.819 22.1483 21.8697 22.5093 22.2207V21.819H26.292C26.6474 21.819 27.4172 21.8902 27.8735 22.2207V21.819H33.6079V22.2207C33.893 21.9461 34.4961 21.819 35.0096 21.819H38.2213V22.2207C38.5584 21.9758 39.0335 21.819 39.6887 21.819H41.8609V22.7995H39.5233C38.2922 22.7995 37.8407 23.5508 37.8407 24.2655C37.8407 25.8247 39.2145 25.753 40.316 25.7907C40.5203 25.7907 40.6444 25.8244 40.7295 25.8996C40.8158 25.9679 40.8725 26.0829 40.8725 26.2264C40.8725 26.3609 40.8165 26.4717 40.7347 26.548C40.6405 26.6404 40.4835 26.67 40.2596 26.67H38.0034V27.7266H40.2688C41.0206 27.7266 41.5759 27.5135 41.8609 27.0953V28.3763C41.3909 28.6042 40.7728 28.6939 40.1402 28.6939H37.1004V28.2529C36.7482 28.5365 36.1129 28.6939 35.5044 28.6939H25.9205V27.1045C25.9205 26.9097 25.9008 26.901 25.7066 26.901H25.5557V28.6939H22.4004V26.838C21.8724 27.0671 21.2738 27.0874 20.7664 27.0795H20.3897V28.6965L16.5651 28.6939L15.6253 27.6242L14.6265 28.6939H8.4223V21.819H8.42226ZM9.47881 22.806V27.745H14.1291L15.6318 26.1096L17.0769 27.745H19.3594V26.0886H20.8241C21.8503 26.0886 22.869 25.8053 22.869 24.4335C22.869 23.0659 21.8214 22.806 20.8897 22.806H17.1386L15.645 24.4257L14.2012 22.806H9.47881ZM23.3979 22.806V27.745H24.5752V25.9416H25.8287C26.2565 25.9416 26.5183 25.9839 26.6897 26.1608C26.9076 26.3904 26.8787 26.8297 26.8787 27.1268V27.745H28.056V26.7658C28.0513 26.3305 28.0274 26.1052 27.8617 25.8641C27.7617 25.7202 27.5493 25.5463 27.2882 25.4494C27.5969 25.3261 28.1188 24.9237 28.119 24.1355C28.119 23.5722 27.8867 23.2646 27.5166 23.0396C27.1317 22.8329 26.6981 22.806 26.1043 22.806H23.3979L23.3979 22.806ZM28.7883 22.806V27.745H32.6996V26.7199L29.9552 26.716V25.7329H32.6327V24.7249H29.9552V23.8271H32.6996V22.806H28.7883ZM34.9387 22.806C33.7096 22.806 33.2627 23.5597 33.2627 24.276C33.2627 25.8388 34.6364 25.7674 35.7328 25.8051C35.9369 25.8051 36.0605 25.84 36.1502 25.9153C36.2306 25.9838 36.2932 26.097 36.2932 26.2408C36.2932 26.3756 36.2347 26.4873 36.1541 26.5637C36.0553 26.6563 35.8987 26.6858 35.6763 26.6858H33.4018V27.745H35.6855C36.8679 27.745 37.527 27.2481 37.527 26.1857C37.527 25.6774 37.4048 25.3775 37.1765 25.1396C36.911 24.8689 36.4742 24.7589 35.8378 24.7433L35.2065 24.7262C35.0067 24.7262 34.8734 24.7131 34.7497 24.6698C34.6022 24.615 34.4938 24.4886 34.4938 24.3023C34.4938 24.1456 34.5412 24.0265 34.6697 23.9466C34.7875 23.8654 34.9264 23.8573 35.1395 23.8573H37.2894V22.806H34.9387ZM18.182 23.335V27.2856L16.3852 25.2788L18.182 23.335ZM10.6417 23.8298H13.5857L14.8706 25.2709L13.5292 26.7212H10.6417V25.7382H13.2195V24.7288H10.6417V23.8298ZM19.3449 23.8298H20.8805C21.3055 23.8298 21.5998 24.004 21.5998 24.4401C21.5998 24.8713 21.3184 25.099 20.8661 25.099H19.3449L19.3449 23.8298ZM24.5949 23.8298H26.0452C26.2548 23.8298 26.4645 23.8342 26.607 23.9177C26.7595 23.9965 26.8498 24.1464 26.8498 24.3548C26.8498 24.5631 26.7595 24.7308 26.607 24.822C26.4495 24.9144 26.2546 24.9231 26.0255 24.9231H24.5949V23.8298ZM39.7228 23.8639H41.8609V25.2748C41.8281 25.2324 41.7994 25.1906 41.7519 25.1528C41.4908 24.8811 41.0624 24.7697 40.421 24.7538L39.7858 24.7367C39.5904 24.7367 39.4567 24.7238 39.333 24.6803C39.181 24.6252 39.077 24.4985 39.077 24.3115C39.077 24.1541 39.1252 24.0348 39.249 23.9545C39.3684 23.873 39.5094 23.8639 39.7228 23.8639Z" fill="black"/>
</g>
<defs>
<clipPath id="clip0_5164_68">
<rect width="42" height="42" fill="white"/>
</clipPath>
</defs>
</svg>
