<svg width="42" height="42" viewBox="0 0 42 42" fill="none" xmlns="http://www.w3.org/2000/svg">
<g clip-path="url(#clip0_5164_66)">
<path d="M1.92895 7.81201C0.849973 7.81201 -0.0253906 8.6862 -0.0253906 9.76501V32.235C-0.0253906 33.314 0.850057 34.188 1.92895 34.188H40.0216C41.1006 34.188 41.9746 33.3138 41.9746 32.235V9.76501C41.9746 8.68607 41.1005 7.81201 40.0216 7.81201H1.92895ZM22.0863 15.2368C22.1148 15.2361 22.143 15.2368 22.1716 15.2368C24.0057 15.2368 25.4923 16.7231 25.4923 18.5575C25.4923 20.3918 24.0057 21.8794 22.1716 21.8794C20.3375 21.8794 18.851 20.3918 18.851 18.5575C18.851 16.7518 20.2918 15.2823 22.0863 15.2368ZM11.6047 15.3825C12.263 15.3825 12.8664 15.6085 13.37 16.0493L12.7571 16.8525C12.4517 16.5101 12.1629 16.3656 11.8121 16.3656C11.3069 16.3656 10.9393 16.6526 10.9393 17.031C10.9393 17.3555 11.1457 17.5281 11.8488 17.7883C13.1815 18.2758 13.5761 18.7081 13.5761 19.6626C13.5761 20.8258 12.7225 21.6353 11.5049 21.6353C10.6136 21.6353 9.96435 21.2833 9.42465 20.4908L10.1819 19.7623C10.4516 20.2842 10.9015 20.563 11.4603 20.563C11.9829 20.563 12.3699 20.2032 12.3699 19.7164C12.3699 19.4641 12.2536 19.2473 12.0194 19.0943C11.9016 19.0219 11.6682 18.9135 11.2097 18.7517C10.1093 18.3554 9.73175 17.9323 9.73175 17.1045C9.73175 16.1212 10.5419 15.3825 11.6047 15.3825ZM17.1159 15.3825C17.6199 15.3825 18.0438 15.4902 18.5583 15.75V17.1229C18.071 16.6484 17.6473 16.4496 17.0883 16.4496C15.9895 16.4496 15.1261 17.3566 15.1261 18.505C15.1261 19.7165 15.9634 20.5682 17.1434 20.5682C17.6746 20.5682 18.0898 20.3801 18.5583 19.9133V21.2862C18.0255 21.536 17.5928 21.6353 17.0883 21.6353C15.3042 21.6353 13.9186 20.2711 13.9186 18.5128C13.9186 16.7735 15.3409 15.3825 17.1159 15.3825H17.1159ZM2.29511 15.481H4.02761C5.94189 15.481 7.27606 16.7056 7.27606 18.4643C7.27606 19.3412 6.86765 20.1893 6.17751 20.752C5.59652 21.2269 4.93489 21.4397 4.01845 21.4397H2.29511V15.481ZM7.81286 15.481H8.93636V21.4397H7.81286V15.481ZM25.004 15.481H26.2811L27.8797 19.5117L29.4993 15.4809H30.7672L28.1776 21.6353H27.5476L25.004 15.481ZM31.2554 15.481H34.5761V16.4903H32.4249V17.8133H34.4973V18.8226H32.4249V20.4304H34.5761V21.4397H31.2554V15.481ZM35.4069 15.481H37.1473C38.5016 15.481 39.2788 16.1241 39.2788 17.2397C39.2788 18.1521 38.7917 18.7507 37.9072 18.9289L39.8024 21.4397H38.3574L36.7325 19.0457H36.5789V21.4397H35.4069V15.481V15.481ZM36.5868 16.4194V18.2333H36.9268C37.6694 18.2333 38.0634 17.9099 38.0634 17.308C38.0634 16.7253 37.6693 16.4194 36.9451 16.4194H36.5868ZM3.47506 16.485V20.4357H3.79136C4.55492 20.4357 5.03847 20.2913 5.40966 19.9605C5.81861 19.6018 6.06331 19.0287 6.06331 18.4551C6.06331 17.8828 5.81861 17.3269 5.40966 16.968C5.01948 16.6194 4.55488 16.485 3.7914 16.485H3.47506ZM41.4628 22.1209C41.4628 22.1209 41.4745 28.5205 41.4483 31.8846C41.446 32.179 41.3382 32.6451 41.0034 33.033C40.6685 33.421 40.1477 33.6025 39.8366 33.6013C39.5254 33.6002 9.42461 33.6013 9.42461 33.6013C30.0841 30.0373 41.4628 22.1209 41.4628 22.1209Z" fill="black"/>
</g>
<defs>
<clipPath id="clip0_5164_66">
<rect width="42" height="42" fill="white"/>
</clipPath>
</defs>
</svg>
