<svg width="40" height="40" viewBox="0 0 40 40" fill="none" xmlns="http://www.w3.org/2000/svg">
<g clip-path="url(#clip0_5081_179)">
<path d="M40 15.8641V15.8606C40 15.8272 39.9981 15.7942 39.9954 15.7613C39.9946 15.7523 39.9934 15.7434 39.9925 15.7344C39.9897 15.7086 39.9861 15.6831 39.9816 15.6578C39.98 15.6482 39.9784 15.6387 39.9765 15.6293C39.9702 15.5984 39.9631 15.5678 39.9545 15.5377C39.9536 15.5347 39.9529 15.5317 39.952 15.5287C39.9429 15.4979 39.9323 15.4677 39.9207 15.4379C39.9163 15.4264 39.9115 15.4153 39.9067 15.4039C39.8982 15.3838 39.8891 15.3639 39.8794 15.3443C39.8737 15.3329 39.8684 15.3214 39.8624 15.3101C39.8478 15.2827 39.8323 15.2558 39.8155 15.2296C39.8093 15.2198 39.8024 15.2104 39.7959 15.2008C39.7828 15.1817 39.7693 15.1629 39.7552 15.1446C39.7476 15.1349 39.74 15.1252 39.7321 15.1156C39.7116 15.0907 39.6903 15.0663 39.6677 15.0431C39.6659 15.0413 39.6641 15.0394 39.6623 15.0376C39.6381 15.013 39.6123 14.9898 39.5859 14.9673C39.5826 14.9645 39.5798 14.9614 39.5764 14.9586L37.5781 13.3004V8.20441C37.5781 6.69668 36.3515 5.47004 34.8438 5.47004H28.1425L22.7441 0.989959C21.1539 -0.329417 18.8459 -0.329417 17.2559 0.989959L11.8575 5.46996H5.15625C3.64852 5.46996 2.42188 6.6966 2.42188 8.20434V13.3004L0.423516 14.9588C0.420234 14.9615 0.417344 14.9646 0.414062 14.9675C0.387578 14.99 0.361797 15.0132 0.337578 15.0378C0.335781 15.0396 0.334062 15.0414 0.332266 15.0432C0.309687 15.0664 0.288359 15.0908 0.267812 15.1157C0.259922 15.1253 0.252344 15.135 0.244766 15.1448C0.230625 15.1632 0.217109 15.1819 0.204062 15.201C0.1975 15.2106 0.190625 15.22 0.184375 15.2297C0.167656 15.2559 0.152109 15.2828 0.1375 15.3103C0.131484 15.3215 0.126094 15.333 0.120547 15.3444C0.110859 15.364 0.101797 15.3839 0.0932031 15.4041C0.0884375 15.4154 0.0835938 15.4266 0.0792188 15.438C0.0676563 15.4679 0.0569531 15.498 0.0478906 15.5289C0.0470312 15.5318 0.0463281 15.5348 0.0454688 15.5379C0.0367969 15.5679 0.0296875 15.5986 0.0234375 15.6294C0.0215625 15.6389 0.0199219 15.6484 0.0182812 15.6579C0.0138281 15.6832 0.0102344 15.7088 0.00742187 15.7346C0.00648437 15.7436 0.0053125 15.7525 0.00453125 15.7614C0.001875 15.7942 0 15.8272 0 15.8606V15.8641V15.8647V35.7028C0 36.9307 0.518594 38.0392 1.34734 38.823C1.37086 38.8465 1.39445 38.8698 1.41961 38.891C2.18187 39.5796 3.19117 39.9996 4.29688 39.9996H35.7031C36.8089 39.9996 37.8183 39.5795 38.5806 38.8908C38.6055 38.8697 38.629 38.8466 38.6523 38.8232C39.4813 38.0394 40 36.9308 40 35.7027V15.8647C40 15.8646 40 15.8643 40 15.8641ZM5.15625 7.81371H34.8438C35.0591 7.81371 35.2344 7.98895 35.2344 8.20434V17.3201L34.5713 17.8704L21.2473 28.9277C20.5246 29.5275 19.4754 29.5274 18.7527 28.9277L5.42875 17.8705L4.76562 17.3201V8.20434C4.76562 7.98895 4.94086 7.81371 5.15625 7.81371ZM2.34375 35.7028V18.3559L2.84781 18.7743C2.84812 18.7745 2.84844 18.7748 2.84875 18.775L14.2916 28.2712L2.46375 36.3768C2.38617 36.1667 2.34375 35.9396 2.34375 35.7028ZM16.167 29.8275L17.2559 30.7312C18.8459 32.0508 21.1541 32.0507 22.7441 30.7312L23.833 29.8275L35.2565 37.6559H4.74344L16.167 29.8275ZM25.7084 28.2713L37.1512 18.775C37.1515 18.7748 37.1518 18.7745 37.1521 18.7743L37.6562 18.3559V35.7028C37.6562 35.9396 37.6138 36.1667 37.5362 36.3768L25.7084 28.2713ZM18.7527 2.79363C19.4754 2.19387 20.5246 2.19387 21.2473 2.79363L24.4724 5.47004H15.5276L18.7527 2.79363Z" fill="black"/>
<path d="M10.2734 12.8903C10.2734 13.5374 10.7981 14.0621 11.4453 14.0621H22.5391C23.1862 14.0621 23.7109 13.5374 23.7109 12.8903C23.7109 12.2431 23.1862 11.7184 22.5391 11.7184H11.4453C10.7981 11.7184 10.2734 12.2431 10.2734 12.8903Z" fill="black"/>
<path d="M11.4453 18.7496H28.5547C29.1006 18.7496 29.558 18.3757 29.6882 17.8704C29.7123 17.7767 29.7266 17.679 29.7266 17.5778C29.7266 16.9306 29.2019 16.4059 28.5547 16.4059H11.4453C10.7981 16.4059 10.2734 16.9306 10.2734 17.5778C10.2734 17.679 10.2877 17.7767 10.3118 17.8704C10.442 18.3758 10.8994 18.7496 11.4453 18.7496Z" fill="black"/>
</g>
<defs>
<clipPath id="clip0_5081_179">
<rect width="40" height="40" fill="white"/>
</clipPath>
</defs>
</svg>
