<svg width="36" height="36" viewBox="0 0 36 36" fill="none" xmlns="http://www.w3.org/2000/svg">
<path d="M22.8678 26.7465H13.1328V9.25195H22.8678V26.7465Z" fill="#FF5F00"/>
<path d="M13.7505 18C13.749 16.3153 14.1309 14.6523 14.8671 13.137C15.6033 11.6216 16.6747 10.2936 18 9.25354C16.3588 7.96373 14.3878 7.16165 12.3123 6.93898C10.2368 6.7163 8.14057 7.08201 6.26309 7.99431C4.38561 8.90661 2.80265 10.3287 1.69512 12.0981C0.587598 13.8674 0.000179506 15.9126 0 18C0.000400568 20.0872 0.587888 22.1321 1.69534 23.9012C2.80279 25.6703 4.38554 27.0922 6.26276 28.0044C8.13997 28.9167 10.2359 29.2825 12.3112 29.0601C14.3864 28.8376 16.3573 28.0359 17.9985 26.7465C16.6736 25.7061 15.6027 24.3781 14.8667 22.8628C14.1308 21.3474 13.7491 19.6846 13.7505 18Z" fill="#EB001B"/>
<path d="M36 18C35.9998 20.0874 35.4124 22.1327 34.3049 23.902C33.1973 25.6714 31.6144 27.0935 29.7369 28.0058C27.8594 28.9181 25.7632 29.2838 23.6877 29.0611C21.6122 28.8384 19.6412 28.0364 18 26.7465C20.5875 24.7095 22.2495 21.549 22.2495 18C22.2495 14.451 20.5875 11.2905 18 9.25354C19.6412 7.96373 21.6122 7.16165 23.6877 6.93898C25.7632 6.7163 27.8594 7.08201 29.7369 7.99431C31.6144 8.90661 33.1973 10.3287 34.3049 12.098C35.4124 13.8674 35.9998 15.9126 36 18Z" fill="#F79E1B"/>
</svg>
