<svg width="23" height="26" viewBox="0 0 23 26" fill="none" xmlns="http://www.w3.org/2000/svg">
<path d="M18.6957 2.02487C17.4962 0.657682 15.3279 0.0715332 12.554 0.0715332H4.50337C4.22892 0.0715434 3.96348 0.169458 3.75476 0.347672C3.54604 0.525887 3.40775 0.772712 3.36473 1.04377L0.0126051 22.3038C-0.0540243 22.723 0.2706 23.1026 0.695513 23.1026H5.66568L6.91391 15.1854L6.87517 15.4333C6.9641 14.8737 7.44272 14.4609 8.0095 14.4609H10.3713C15.0111 14.4609 18.6441 12.5763 19.7054 7.12469C19.7369 6.96345 19.7642 6.80652 19.7877 6.6532C19.6538 6.58227 19.6538 6.58227 19.7877 6.6532C20.1038 4.63823 19.7856 3.26664 18.6957 2.02487Z" fill="#27346A"/>
<path d="M8.81567 5.92734C8.95155 5.86264 9.10016 5.82911 9.25066 5.8292H15.5622C16.3096 5.8292 17.0067 5.87784 17.6437 5.98037C17.822 6.00879 17.9993 6.04272 18.1754 6.08212C18.4251 6.13721 18.6719 6.20464 18.9149 6.28416C19.2281 6.38875 19.5197 6.51056 19.7878 6.6532C20.1037 4.63745 19.7856 3.26664 18.6957 2.02487C17.4955 0.657682 15.3279 0.0715332 12.554 0.0715332H4.50268C3.93581 0.0715332 3.45357 0.484222 3.36473 1.04377L0.0126055 22.303C-0.0540237 22.7229 0.2706 23.102 0.694824 23.102H5.66568L8.25535 6.67972C8.28081 6.5183 8.34511 6.36549 8.44272 6.23442C8.54033 6.10336 8.66831 5.99798 8.81567 5.92734Z" fill="#27346A"/>
<path d="M19.705 7.12456C18.6437 12.5754 15.0108 14.4608 10.3709 14.4608H8.00844C7.44166 14.4608 6.96294 14.8735 6.87488 15.4332L5.322 25.2773C5.26398 25.6442 5.54772 25.9767 5.91891 25.9767H10.1086C10.3486 25.9766 10.5807 25.8909 10.7632 25.735C10.9457 25.5791 11.0665 25.3632 11.104 25.1262L11.1448 24.9127L11.9345 19.9081L11.9854 19.6315C12.0229 19.3945 12.1437 19.1786 12.3262 19.0227C12.5086 18.8668 12.7407 18.7811 12.9807 18.781H13.6077C17.6663 18.781 20.8443 17.1321 21.773 12.3634C22.1606 10.3705 21.96 8.7067 20.9346 7.53802C20.6236 7.18404 20.2373 6.8917 19.7874 6.65308C19.763 6.80717 19.7366 6.96332 19.705 7.12456Z" fill="#2790C3"/>
<path d="M18.6762 6.21037C18.5107 6.16205 18.3437 6.11927 18.1754 6.08211C17.9991 6.04335 17.8218 6.00965 17.6436 5.98104C17.0059 5.87783 16.3093 5.8291 15.5613 5.8291H9.2505C9.09989 5.82876 8.95117 5.86258 8.81551 5.92802C8.66799 5.99844 8.53986 6.10376 8.44221 6.23486C8.34456 6.36596 8.28034 6.51888 8.2551 6.68039L6.91374 15.1854L6.875 15.4333C6.96324 14.8736 7.44187 14.4609 8.00873 14.4609H10.3712C15.011 14.4609 18.6439 12.5763 19.7052 7.12467C19.7368 6.96344 19.7633 6.8072 19.7877 6.65319C19.5189 6.51132 19.228 6.38874 18.9148 6.28483C18.8357 6.25863 18.7562 6.23381 18.6763 6.21037" fill="#1F264F"/>
</svg>
