<svg width="30" height="30" viewBox="0 0 30 30" fill="none" xmlns="http://www.w3.org/2000/svg">
<g clip-path="url(#clip0_7148_183)">
<path d="M21.1444 3.525C21.1442 3.95193 21.0612 4.37477 20.9001 4.77012L16.9954 14.3889L13.9286 21.9457L13.614 22.7203L12.135 26.3637L12.1309 26.3619C11.8444 27.0106 11.4324 27.5963 10.9186 28.0851C10.4047 28.5739 9.79929 28.9563 9.13709 29.2101C8.47488 29.464 7.76899 29.5843 7.06009 29.5642C6.35118 29.544 5.65326 29.3839 5.00651 29.0929C4.35976 28.8019 3.77698 28.3858 3.29171 27.8687C2.80644 27.3515 2.42828 26.7434 2.17901 26.0795C1.92974 25.4155 1.81428 24.7088 1.83928 24.0001C1.86428 23.2913 2.02925 22.5945 2.32469 21.9498C3.48661 19.4473 6.41278 18.2285 9.01961 19.159C9.74691 19.4171 10.41 19.829 10.9638 20.3666L11.811 18.2789L12.1257 17.5043L15.1931 9.94863L19.0532 0.439453C19.67 0.686269 20.1987 1.11203 20.5714 1.66193C20.9441 2.21184 21.1437 2.8607 21.1444 3.525Z" fill="#167FFC"/>
<path d="M5.19103 29.169C6.48604 29.6911 7.9331 29.6902 9.22746 29.1665C10.5218 28.6429 11.5625 27.6374 12.1303 26.3618L12.1344 26.3636L13.6133 22.7202L11.8104 18.2788L10.9631 20.3665C10.4094 19.8289 9.74625 19.4171 9.01896 19.1589C6.41212 18.2284 3.48595 19.4472 2.32404 21.9497C2.01769 22.609 1.84902 23.3239 1.82834 24.0507C1.80765 24.7774 1.93538 25.5007 2.20372 26.1764C2.47206 26.8521 2.87537 27.466 3.389 27.9806C3.90264 28.4951 4.5158 28.8995 5.19103 29.169Z" fill="#F9AE5E"/>
<path d="M7.20703 26.2322C8.33317 26.2322 9.24609 25.3236 9.24609 24.2028C9.24609 23.082 8.33317 22.1733 7.20703 22.1733C6.08089 22.1733 5.16797 23.082 5.16797 24.2028C5.16797 25.3236 6.08089 26.2322 7.20703 26.2322Z" fill="white"/>
<path d="M17.4342 13.3045L14.3674 20.8613L12.5645 16.4199L15.6318 8.86426L17.4342 13.3045Z" fill="#595BD4"/>
<path d="M24.8082 29.1691C23.5132 29.6912 22.0661 29.6903 20.7718 29.1666C19.4774 28.643 18.4367 27.6375 17.8689 26.3619L17.8648 26.3637L16.3859 22.7203L16.0719 21.9463L13.0045 14.3889L9.09981 4.77012C8.93491 4.36469 8.85191 3.93063 8.85559 3.49297C8.85927 3.05531 8.94955 2.62271 9.12125 2.22011C9.29294 1.81752 9.54264 1.4529 9.85594 1.14728C10.1692 0.841664 10.5399 0.601097 10.9467 0.439453L14.8068 9.94863L17.8742 17.5043L18.1889 18.2789L19.0361 20.3666C19.5899 19.829 20.253 19.4171 20.9803 19.159C23.5871 18.2285 26.5133 19.4473 27.6752 21.9498C27.9815 22.6091 28.1502 23.324 28.1709 24.0508C28.1916 24.7775 28.0639 25.5008 27.7955 26.1765C27.5272 26.8522 27.1239 27.4661 26.6102 27.9807C26.0966 28.4952 25.4834 28.8996 24.8082 29.1691Z" fill="#167FFC"/>
<path d="M24.809 29.169C23.514 29.6911 22.0669 29.6902 20.7725 29.1665C19.4782 28.6429 18.4375 27.6374 17.8697 26.3618L17.8656 26.3636L16.3867 22.7202L18.1896 18.2788L19.0369 20.3665C19.5907 19.8289 20.2538 19.4171 20.9811 19.1589C23.5879 18.2284 26.5141 19.4472 27.676 21.9497C27.9823 22.609 28.151 23.3239 28.1717 24.0507C28.1924 24.7774 28.0646 25.5007 27.7963 26.1764C27.528 26.8521 27.1246 27.466 26.611 27.9806C26.0974 28.4951 25.4842 28.8995 24.809 29.169Z" fill="#F9AE5E"/>
<path d="M27.6756 21.9499C26.5848 19.6005 23.939 18.3828 21.4623 19.0124C22.5628 19.2815 23.5493 19.8934 24.2795 20.7596C25.0096 21.6258 25.4456 22.7017 25.5246 23.8318C25.6035 24.962 25.3213 26.088 24.7187 27.0473C24.1161 28.0067 23.2242 28.7497 22.1719 29.1692C21.945 29.2604 21.7122 29.3362 21.4751 29.3961C22.4574 29.6452 23.4902 29.6113 24.4541 29.2983C25.4179 28.9852 26.2735 28.4059 26.922 27.6271C27.5705 26.8483 27.9854 25.9019 28.1187 24.8973C28.2521 23.8927 28.0984 22.8709 27.6756 21.9499ZM12.0648 21.9499C10.9835 19.5961 8.32826 18.3828 5.85156 19.0124C6.95205 19.2815 7.93856 19.8933 8.66872 20.7596C9.39887 21.6258 9.83489 22.7017 9.91384 23.8318C9.9928 24.962 9.7106 26.088 9.10799 27.0473C8.50537 28.0067 7.61351 28.7497 6.56113 29.1692C6.33423 29.2604 6.10144 29.3362 5.86434 29.3961C6.97159 29.6743 8.1385 29.5949 9.19785 29.1692C9.87353 28.9003 10.4872 28.4962 11.0012 27.9818C11.5152 27.4673 11.9188 26.8533 12.1872 26.1775C12.4557 25.5016 12.5833 24.778 12.5622 24.051C12.5412 23.3241 12.3719 22.6091 12.0648 21.9499Z" fill="#FE9526"/>
<path d="M22.793 26.2322C23.9191 26.2322 24.832 25.3236 24.832 24.2028C24.832 23.082 23.9191 22.1733 22.793 22.1733C21.6668 22.1733 20.7539 23.082 20.7539 24.2028C20.7539 25.3236 21.6668 26.2322 22.793 26.2322Z" fill="white"/>
<path d="M24.6825 23.4425C24.4893 22.9713 24.1272 22.5892 23.6671 22.371C23.207 22.1528 22.682 22.1142 22.1949 22.2627C22.5977 22.3834 22.9529 22.6264 23.2113 22.958C23.4697 23.2896 23.6186 23.6934 23.6372 24.1134C23.6558 24.5334 23.5432 24.9488 23.3152 25.302C23.0871 25.6552 22.7547 25.9286 22.3643 26.0844C22.3091 26.1066 22.2534 26.1257 22.1975 26.1428C22.5644 26.2554 22.9557 26.2619 23.3261 26.1616C23.6966 26.0613 24.0311 25.8582 24.291 25.5758C24.5509 25.2933 24.7255 24.9432 24.7948 24.5657C24.8641 24.1882 24.8252 23.7988 24.6825 23.4425ZM9.1458 23.4425C8.9526 22.9713 8.5905 22.5892 8.1304 22.371C7.67029 22.1528 7.1453 22.1142 6.6582 22.2627C7.06094 22.3834 7.41615 22.6264 7.67458 22.958C7.93301 23.2896 8.08185 23.6934 8.10046 24.1134C8.11907 24.5334 8.00653 24.9488 7.77844 25.302C7.55035 25.6552 7.21802 25.9286 6.82754 26.0844C6.77234 26.1066 6.71668 26.1257 6.66078 26.1428C7.02768 26.2554 7.41896 26.2619 7.78941 26.1616C8.15985 26.0613 8.49435 25.8582 8.75425 25.5758C9.01414 25.2933 9.18883 24.9432 9.25811 24.5657C9.3274 24.1882 9.28846 23.7988 9.1458 23.4425Z" fill="#53D86A"/>
<path d="M28.0732 21.7648C27.4555 20.4532 26.3725 19.4179 25.0344 18.8599C23.6963 18.3019 22.1986 18.261 20.832 18.7452C20.248 18.9524 19.7009 19.2517 19.2115 19.6319L18.5966 18.1172C18.5948 18.1125 18.5929 18.1078 18.591 18.1031L17.2762 14.8644L21.3068 4.93555C21.4934 4.47653 21.5874 3.98512 21.5832 3.48962C21.5791 2.99413 21.4769 2.50436 21.2826 2.04853C21.0883 1.59269 20.8058 1.17982 20.4512 0.833702C20.0966 0.487582 19.677 0.215059 19.2166 0.0318373C19.1087 -0.0115471 18.988 -0.0103953 18.881 0.0350404C18.7739 0.0804761 18.6892 0.166491 18.6455 0.27424L14.9996 9.25607L11.3535 0.274181C11.3098 0.166402 11.2251 0.0803563 11.1181 0.0349151C11.011 -0.0105261 10.8903 -0.011654 10.7824 0.0317787C10.3224 0.215615 9.90331 0.488499 9.5491 0.83476C9.19489 1.18102 8.91257 1.59384 8.71834 2.04951C8.52411 2.50519 8.4218 2.99474 8.41729 3.49006C8.41279 3.98538 8.50616 4.47671 8.69206 4.93584L12.7226 14.8647L11.4072 18.1047C11.4058 18.1078 11.4046 18.1111 11.4033 18.1143L10.7871 19.6319C10.0951 19.0965 9.2918 18.7233 8.43636 18.5399C7.58091 18.3566 6.6952 18.3677 5.84461 18.5724C4.99402 18.7771 4.20027 19.1703 3.52195 19.7228C2.84364 20.2754 2.29808 20.9732 1.92554 21.7648C1.59406 22.4782 1.41152 23.2517 1.38908 24.038C1.36663 24.8244 1.50474 25.607 1.79498 26.3382C2.08521 27.0694 2.52148 27.7337 3.07712 28.2905C3.63275 28.8474 4.2961 29.2851 5.02661 29.577C6.41764 30.1376 7.9712 30.1406 9.36438 29.5853C10.7576 29.0301 11.8832 27.9593 12.5073 26.5956C12.5204 26.5745 12.5317 26.5522 12.5411 26.5292L14.0206 22.8858C14.0223 22.8813 14.0241 22.8769 14.0257 22.8723L14.9993 20.4733L15.9788 22.8863L15.982 22.8942L17.4575 26.5289C17.467 26.5525 17.4786 26.5752 17.4921 26.5967C17.8073 27.2948 18.2572 27.9237 18.8161 28.4474C19.3749 28.971 20.0317 29.3792 20.7487 29.6484C21.4657 29.9176 22.2288 30.0425 22.9943 30.016C23.7597 29.9895 24.5123 29.8121 25.209 29.494C25.9057 29.1758 26.5327 28.7232 27.054 28.1621C27.5753 27.6011 27.9806 26.9425 28.2467 26.2244C28.5129 25.5062 28.6345 24.7426 28.6048 23.9773C28.575 23.212 28.3944 22.4601 28.0732 21.7648ZM19.2829 1.04082C19.8793 1.39024 20.3298 1.94286 20.552 2.59742C20.7741 3.25198 20.7529 3.96467 20.4924 4.6049L16.8019 13.6961L15.4739 10.4245L19.2829 1.04082ZM11.7489 26.1438C11.7414 26.157 11.7346 26.1705 11.7285 26.1843C11.2067 27.3557 10.2507 28.279 9.06186 28.7597C7.87297 29.2405 6.54393 29.2411 5.35456 28.7616C4.73473 28.5142 4.17186 28.1431 3.70035 27.6708C3.22884 27.1985 2.85861 26.635 2.61228 26.0147C2.36596 25.3945 2.24871 24.7305 2.26772 24.0634C2.28673 23.3963 2.44158 22.7401 2.72283 22.1349C3.78454 19.8468 6.48542 18.7217 8.87142 19.573C9.53963 19.8097 10.1488 20.188 10.6572 20.6821C10.7088 20.7322 10.772 20.7689 10.8412 20.7889C10.9103 20.8089 10.9833 20.8116 11.0537 20.7968C11.1242 20.7819 11.1899 20.75 11.2451 20.7039C11.3003 20.6577 11.3434 20.5987 11.3704 20.532L11.8106 19.4478L13.1391 22.7206L11.7489 26.1438ZM13.6132 21.5517L12.2849 18.2795L13.1968 16.0331L14.5249 19.3048L13.6132 21.5517ZM15.404 19.1336V19.1335L9.50634 4.6052C9.24718 3.96471 9.22678 3.25242 9.44885 2.59814C9.67093 1.94387 10.1207 1.39117 10.7162 1.04076L14.5875 10.5775C14.5911 10.5873 14.5949 10.5969 14.5992 10.6064L17.714 18.2795L16.3857 21.5517L15.404 19.1336ZM27.3908 26.0039C27.1464 26.6272 26.7764 27.1937 26.3039 27.6681C25.8314 28.1425 25.2664 28.5147 24.644 28.7616C23.4547 29.2411 22.1258 29.2404 20.937 28.7596C19.7482 28.2789 18.7923 27.3557 18.2705 26.1843C18.2641 26.1699 18.257 26.1559 18.2491 26.1422L16.8599 22.7202L18.1882 19.4479L18.6283 20.532C18.6553 20.5987 18.6984 20.6577 18.7536 20.7039C18.8088 20.7501 18.8746 20.782 18.945 20.7968C19.0155 20.8116 19.0885 20.8089 19.1576 20.7889C19.2268 20.7689 19.2899 20.7322 19.3416 20.682C19.85 20.188 20.4592 19.8096 21.1274 19.573C23.5134 18.7219 26.2142 19.8471 27.2761 22.1347C27.5593 22.7374 27.7156 23.3918 27.7354 24.0574C27.7551 24.723 27.6378 25.3855 27.3908 26.0039ZM21.8641 21.9134C21.5628 22.0342 21.2883 22.2133 21.0563 22.4404C20.8243 22.6674 20.6394 22.9381 20.5121 23.2367C20.3849 23.5353 20.3178 23.8562 20.3147 24.1808C20.3116 24.5054 20.3726 24.8274 20.4942 25.1284C20.7426 25.7358 21.2213 26.2202 21.8256 26.4757C22.43 26.7313 23.111 26.7372 23.7198 26.4922C24.0211 26.3714 24.2956 26.1924 24.5276 25.9653C24.7596 25.7382 24.9445 25.4676 25.0718 25.169C25.199 24.8703 25.2661 24.5495 25.2692 24.2249C25.2723 23.9003 25.2113 23.5783 25.0897 23.2773C24.841 22.6701 24.3623 22.186 23.758 21.9305C23.1537 21.675 22.4729 21.6689 21.8641 21.9134ZM24.2649 24.8205C24.1834 25.014 24.0642 25.1893 23.9143 25.3363C23.7644 25.4833 23.5868 25.5991 23.3918 25.6769C22.9989 25.835 22.5593 25.8314 22.169 25.6667C21.7787 25.502 21.4694 25.1896 21.3085 24.7978C21.2305 24.6039 21.1914 24.3966 21.1936 24.1876C21.1957 23.9787 21.2391 23.7722 21.3211 23.58C21.4032 23.3879 21.5224 23.2138 21.6718 23.0677C21.8213 22.9216 21.9981 22.8065 22.1921 22.7288C22.585 22.5706 23.0246 22.5742 23.4149 22.7389C23.8052 22.9036 24.1145 23.216 24.2754 23.6079C24.3541 23.8006 24.3936 24.0071 24.3918 24.2153C24.39 24.4234 24.3468 24.6292 24.2648 24.8205H24.2649ZM15.5066 15.6804C15.4197 15.6804 15.3347 15.7062 15.2624 15.7545C15.1902 15.8028 15.1338 15.8714 15.1006 15.9517C15.0673 16.032 15.0586 16.1204 15.0756 16.2056C15.0925 16.2908 15.1344 16.3691 15.1958 16.4306C15.2573 16.4921 15.3356 16.5339 15.4208 16.5509C15.5061 16.5678 15.5944 16.5591 15.6747 16.5259C15.755 16.4926 15.8237 16.4363 15.872 16.364C15.9203 16.2917 15.946 16.2068 15.946 16.1199C15.946 16.0033 15.8997 15.8915 15.8173 15.8091C15.7349 15.7267 15.6231 15.6804 15.5066 15.6804ZM8.13472 21.9135C7.52593 21.6689 6.84511 21.675 6.24082 21.9305C5.63653 22.186 5.15781 22.6701 4.90913 23.2773C4.78755 23.5783 4.72655 23.9003 4.72961 24.2249C4.73268 24.5495 4.79977 24.8704 4.92702 25.169C5.05428 25.4677 5.23921 25.7383 5.47121 25.9654C5.70321 26.1924 5.97774 26.3715 6.27906 26.4923C6.88783 26.7372 7.56879 26.7312 8.17317 26.4757C8.77755 26.2201 9.25624 25.7358 9.50464 25.1284C9.62621 24.8274 9.6872 24.5054 9.68412 24.1808C9.68104 23.8562 9.61395 23.5354 9.4867 23.2367C9.35944 22.9381 9.17452 22.6675 8.94253 22.4404C8.71054 22.2134 8.43602 22.0343 8.13472 21.9135ZM8.69031 24.7978C8.52949 25.1897 8.22017 25.5021 7.82987 25.6668C7.43956 25.8314 6.99996 25.8351 6.607 25.6768C6.413 25.5991 6.23622 25.484 6.08678 25.338C5.93734 25.1919 5.81818 25.0178 5.73611 24.8256C5.65404 24.6335 5.61068 24.427 5.60851 24.218C5.60635 24.0091 5.64541 23.8018 5.72347 23.6079C5.88436 23.2161 6.19369 22.9037 6.58396 22.7391C6.97424 22.5744 7.41381 22.5707 7.80677 22.7289C8.00078 22.8065 8.17756 22.9217 8.32701 23.0678C8.47645 23.2138 8.59562 23.3879 8.67769 23.5801C8.75976 23.7723 8.80311 23.9788 8.80528 24.1877C8.80744 24.3967 8.76837 24.604 8.69031 24.7978V24.7978Z" fill="black"/>
</g>
<defs>
<clipPath id="clip0_7148_183">
<rect width="30" height="30" fill="white"/>
</clipPath>
</defs>
</svg>
