<svg width="50" height="50" viewBox="0 0 50 50" fill="none" xmlns="http://www.w3.org/2000/svg">
<path d="M22.2028 31.5987H18.7692L20.9151 18.4105H24.3491L22.2028 31.5987ZM15.8806 18.4105L12.6072 27.4815L12.2198 25.5281L12.2202 25.5288L11.0648 19.5979C11.0648 19.5979 10.9251 18.4105 9.43606 18.4105H4.02444L3.96094 18.6338C3.96094 18.6338 5.61582 18.9781 7.55258 20.1412L10.5357 31.5991H14.1132L19.576 18.4105H15.8806ZM42.8876 31.5987H46.0404L43.2915 18.4101H40.5314C39.2568 18.4101 38.9463 19.3929 38.9463 19.3929L33.8254 31.5987H37.4047L38.1205 29.6398H42.4854L42.8876 31.5987ZM39.1093 26.9336L40.9134 21.9982L41.9284 26.9336H39.1093ZM34.0939 21.5819L34.5839 18.7498C34.5839 18.7498 33.0719 18.1748 31.4957 18.1748C29.7917 18.1748 25.7454 18.9195 25.7454 22.5408C25.7454 25.9479 30.4945 25.9903 30.4945 27.7799C30.4945 29.5696 26.2347 29.2489 24.8288 28.1203L24.3184 31.0816C24.3184 31.0816 25.8516 31.8263 28.194 31.8263C30.5372 31.8263 34.072 30.6131 34.072 27.3111C34.072 23.8821 29.2802 23.5628 29.2802 22.0719C29.2806 20.5808 32.6245 20.7723 34.0939 21.5819Z" fill="#2566AF"/>
<path d="M12.2202 25.5285L11.0648 19.5976C11.0648 19.5976 10.9251 18.4102 9.43606 18.4102H4.02444L3.96094 18.6335C3.96094 18.6335 6.56197 19.1725 9.05682 21.1922C11.4423 23.1226 12.2202 25.5285 12.2202 25.5285Z" fill="#E6A540"/>
</svg>
